<svg width="727" height="326" xmlns="http://www.w3.org/2000/svg" xmlns:xlink="http://www.w3.org/1999/xlink" overflow="hidden"><defs><clipPath id="clip0"><rect x="0" y="0" width="727" height="326"/></clipPath></defs><g clip-path="url(#clip0)"><rect x="0" y="0" width="727" height="326.351" fill="#FFFFFF" fill-opacity="0"/><path d="M140.908 304.163 148 304.163 148 306.663 146.548 306.663 146.548 305.45 143.573 305.45 143.573 307.745 146.068 307.745 146.068 309.12 143.573 309.12 143.573 312.062 146.497 312.062 146.497 310.625 148 310.625 148 313.337 140.908 313.337 140.908 312.062 141.906 312.062 141.906 305.438 140.908 305.438ZM130.959 304.163 134.622 304.163 134.622 305.438 133.624 305.438 133.624 307.745 137.338 307.745 137.338 305.438 136.34 305.438 136.34 304.163 139.99 304.163 139.99 305.438 139.005 305.438 139.005 312.062 139.99 312.062 139.99 313.337 136.34 313.337 136.34 312.062 137.338 312.062 137.338 309.219 133.624 309.219 133.624 312.062 134.622 312.062 134.622 313.337 130.959 313.337 130.959 312.062 131.957 312.062 131.957 305.438 130.959 305.438ZM123 304.163 130.073 304.163 130.073 306.762 128.589 306.762 128.589 305.438 127.37 305.438 127.37 312.062 128.576 312.062 128.576 313.337 124.503 313.337 124.503 312.062 125.703 312.062 125.703 305.438 124.49 305.438 124.49 306.762 123 306.762ZM134.906 289.865C134.027 289.865 133.29 290.169 132.695 290.776 132.1 291.384 131.802 292.15 131.802 293.075 131.802 293.999 132.097 294.765 132.688 295.373 133.279 295.98 134.018 296.284 134.906 296.284 135.793 296.284 136.534 295.981 137.127 295.376 137.72 294.771 138.016 294.003 138.016 293.075 138.016 292.146 137.719 291.379 137.123 290.773 136.528 290.168 135.789 289.865 134.906 289.865ZM140.908 288.484 148 288.484 148 290.985 146.548 290.985 146.548 289.772 143.573 289.772 143.573 292.067 146.225 292.067 146.225 293.442 143.573 293.442 143.573 296.384 144.792 296.384 144.792 297.659 140.908 297.659 140.908 296.384 141.906 296.384 141.906 289.759 140.908 289.759ZM134.906 288.31C135.55 288.31 136.144 288.407 136.689 288.599 137.234 288.792 137.725 289.081 138.162 289.467 138.693 289.936 139.096 290.476 139.374 291.087 139.652 291.699 139.791 292.361 139.791 293.075 139.791 293.692 139.68 294.28 139.459 294.838 139.238 295.396 138.922 295.894 138.51 296.334 138.043 296.832 137.506 297.207 136.9 297.46 136.294 297.713 135.63 297.839 134.906 297.839 133.517 297.839 132.357 297.381 131.425 296.465 130.493 295.548 130.027 294.418 130.027 293.075 130.027 291.723 130.491 290.591 131.419 289.678 132.347 288.766 133.509 288.31 134.906 288.31Z" fill-rule="evenodd"/><path d="M326.39 307.485 329.818 307.485 327.854 313.337 324.61 313.337ZM202.179 295.475 199.964 301.877 204.368 301.877ZM493.156 294.514C491.32 294.514 489.782 295.14 488.539 296.39 487.296 297.641 486.675 299.218 486.675 301.122 486.675 303.025 487.292 304.602 488.526 305.853 489.76 307.103 491.303 307.729 493.156 307.729 495.008 307.729 496.554 307.105 497.792 305.859 499.03 304.613 499.649 303.034 499.649 301.122 499.649 299.209 499.028 297.63 497.785 296.384 496.543 295.138 495 294.514 493.156 294.514ZM390.392 294.297 390.392 307.934 392.739 307.934C395.103 307.934 396.896 307.355 398.118 306.198 399.34 305.042 399.951 303.35 399.951 301.122 399.951 298.885 399.34 297.188 398.118 296.032 396.896 294.875 395.103 294.297 392.739 294.297ZM419.395 294.271 419.395 301.122 420.476 301.122C422.076 301.122 423.262 300.84 424.036 300.276 424.809 299.713 425.196 298.847 425.196 297.677 425.196 296.525 424.812 295.669 424.043 295.11 423.273 294.551 422.085 294.271 420.476 294.271ZM217.373 294.271 217.373 301.122 218.454 301.122C220.054 301.122 221.24 300.84 222.014 300.276 222.787 299.713 223.174 298.847 223.174 297.677 223.174 296.525 222.789 295.669 222.02 295.11 221.251 294.551 220.062 294.271 218.454 294.271ZM575.849 291.672 590.655 291.672 590.655 296.819 587.623 296.819 587.623 294.322 581.413 294.322 581.413 299.047 586.621 299.047 586.621 301.877 581.413 301.877 581.413 307.934 587.517 307.934 587.517 304.976 590.655 304.976 590.655 310.558 575.849 310.558 575.849 307.934 577.932 307.934 577.932 294.297 575.849 294.297ZM566.848 291.672 574.495 291.672 574.495 294.297 572.412 294.297 572.412 307.934 574.495 307.934 574.495 310.558 566.848 310.558 566.848 307.934 568.931 307.934 568.931 294.297 566.848 294.297ZM550.846 291.672 565.613 291.672 565.613 297.024 562.515 297.024 562.515 294.297 559.97 294.297 559.97 307.934 562.488 307.934 562.488 310.558 553.984 310.558 553.984 307.934 556.489 307.934 556.489 294.297 553.958 294.297 553.958 297.024 550.846 297.024ZM533.844 291.672 548.651 291.672 548.651 296.819 545.618 296.819 545.618 294.322 539.408 294.322 539.408 299.047 544.616 299.047 544.616 301.877 539.408 301.877 539.408 307.934 545.513 307.934 545.513 304.976 548.651 304.976 548.651 310.558 533.844 310.558 533.844 307.934 535.927 307.934 535.927 294.297 533.844 294.297ZM524.843 291.672 532.49 291.672 532.49 294.297 530.407 294.297 530.407 307.934 532.49 307.934 532.49 310.558 524.843 310.558 524.843 307.934 526.926 307.934 526.926 294.297 524.843 294.297ZM449.835 291.672 457.482 291.672 457.482 294.297 455.399 294.297 455.399 307.934 457.482 307.934 457.482 310.558 449.835 310.558 449.835 307.934 451.918 307.934 451.918 294.297 449.835 294.297ZM429.833 291.672 437.48 291.672 437.48 294.297 435.397 294.297 435.397 299.047 443.149 299.047 443.149 294.297 441.066 294.297 441.066 291.672 448.687 291.672 448.687 294.297 446.63 294.297 446.63 307.934 448.687 307.934 448.687 310.558 441.066 310.558 441.066 307.934 443.149 307.934 443.149 302.082 435.397 302.082 435.397 307.934 437.48 307.934 437.48 310.558 429.833 310.558 429.833 307.934 431.916 307.934 431.916 294.297 429.833 294.297ZM413.831 291.672 420.476 291.672C423.192 291.672 425.245 292.182 426.633 293.202 428.022 294.222 428.717 295.722 428.717 297.703 428.717 299.683 428.02 301.179 426.627 302.191 425.234 303.202 423.183 303.708 420.476 303.708L419.395 303.708 419.395 307.934 421.913 307.934 421.913 310.558 413.831 310.558 413.831 307.934 415.914 307.934 415.914 294.297 413.831 294.297ZM404.83 291.672 412.477 291.672 412.477 294.297 410.394 294.297 410.394 307.934 412.477 307.934 412.477 310.558 404.83 310.558 404.83 307.934 406.913 307.934 406.913 294.297 404.83 294.297ZM384.828 291.672 392.633 291.672C396.193 291.672 398.9 292.479 400.755 294.092 402.61 295.705 403.537 298.049 403.537 301.122 403.537 304.186 402.61 306.525 400.755 308.138 398.9 309.752 396.193 310.558 392.633 310.558L384.828 310.558 384.828 307.934 386.911 307.934 386.911 294.297 384.828 294.297ZM338.822 291.672 344.769 291.672 351.704 304.003 351.704 294.297 349.621 294.297 349.621 291.672 357.084 291.672 357.084 294.297 355.001 294.297 355.001 310.93 352.06 310.93 344.228 296.64 344.228 307.934 346.272 307.934 346.272 310.558 338.822 310.558 338.822 307.934 340.906 307.934 340.906 294.297 338.822 294.297ZM309.819 291.672 317.757 291.672 317.757 294.322 315.383 294.322 315.383 307.934 320.249 307.934 320.249 304.976 323.4 304.976 323.4 310.558 309.819 310.558 309.819 307.934 311.903 307.934 311.903 294.297 309.819 294.297ZM294.818 291.672 302.755 291.672 302.755 294.322 300.382 294.322 300.382 307.934 305.247 307.934 305.247 304.976 308.398 304.976 308.398 310.558 294.818 310.558 294.818 307.934 296.901 307.934 296.901 294.297 294.818 294.297ZM285.817 291.672 293.464 291.672 293.464 294.297 291.381 294.297 291.381 307.934 293.464 307.934 293.464 310.558 285.817 310.558 285.817 307.934 287.9 307.934 287.9 294.297 285.817 294.297ZM265.814 291.672 273.462 291.672 273.462 294.297 271.379 294.297 271.379 299.047 279.131 299.047 279.131 294.297 277.048 294.297 277.048 291.672 284.669 291.672 284.669 294.297 282.612 294.297 282.612 307.934 284.669 307.934 284.669 310.558 277.048 310.558 277.048 307.934 279.131 307.934 279.131 302.082 271.379 302.082 271.379 307.934 273.462 307.934 273.462 310.558 265.814 310.558 265.814 307.934 267.898 307.934 267.898 294.297 265.814 294.297ZM244.812 291.672 252.75 291.672 252.75 294.322 250.376 294.322 250.376 307.934 255.242 307.934 255.242 304.976 258.393 304.976 258.393 310.558 244.812 310.558 244.812 307.934 246.895 307.934 246.895 294.297 244.812 294.297ZM227.81 291.672 242.617 291.672 242.617 296.819 239.585 296.819 239.585 294.322 233.374 294.322 233.374 299.047 238.582 299.047 238.582 301.877 233.374 301.877 233.374 307.934 239.479 307.934 239.479 304.976 242.617 304.976 242.617 310.558 227.81 310.558 227.81 307.934 229.894 307.934 229.894 294.297 227.81 294.297ZM211.809 291.672 218.454 291.672C221.17 291.672 223.222 292.182 224.611 293.202 226 294.222 226.694 295.722 226.694 297.703 226.694 299.683 225.998 301.179 224.605 302.191 223.211 303.202 221.161 303.708 218.454 303.708L217.373 303.708 217.373 307.934 219.891 307.934 219.891 310.558 211.809 310.558 211.809 307.934 213.892 307.934 213.892 294.297 211.809 294.297ZM197.406 291.672 207.361 291.672 207.361 294.297 205.119 294.297 209.932 307.934 211.712 307.934 211.712 310.558 204.341 310.558 204.341 307.934 206.425 307.934 205.238 304.502 199.133 304.502 197.947 307.934 200.017 307.934 200.017 310.558 193.055 310.558 193.055 307.934 194.598 307.934 199.502 294.297 197.406 294.297ZM173.804 291.672 181.452 291.672 181.452 294.297 179.368 294.297 179.368 299.047 187.121 299.047 187.121 294.297 185.038 294.297 185.038 291.672 192.659 291.672 192.659 294.297 190.602 294.297 190.602 307.934 192.659 307.934 192.659 310.558 185.038 310.558 185.038 307.934 187.121 307.934 187.121 302.082 179.368 302.082 179.368 307.934 181.452 307.934 181.452 310.558 173.804 310.558 173.804 307.934 175.888 307.934 175.888 294.297 173.804 294.297ZM599.759 291.313C600.656 291.313 601.487 291.45 602.251 291.723 603.016 291.996 603.671 292.393 604.216 292.914L604.216 291.672 606.919 291.672 606.919 297.293 604.216 297.293C603.908 296.175 603.429 295.34 602.779 294.79 602.128 294.239 601.302 293.964 600.3 293.964 599.456 293.964 598.768 294.188 598.237 294.636 597.705 295.084 597.439 295.654 597.439 296.345 597.439 296.935 597.608 297.402 597.946 297.748 598.285 298.093 598.88 298.386 599.733 298.625L602.093 299.278C604.264 299.892 605.792 300.641 606.675 301.525 607.558 302.408 608 303.593 608 305.078 608 306.845 607.448 308.262 606.345 309.329 605.242 310.396 603.776 310.93 601.948 310.93 600.911 310.93 599.962 310.763 599.1 310.43 598.239 310.097 597.487 309.607 596.846 308.958L596.846 310.558 594.037 310.558 594.037 304.156 596.846 304.156C597.215 305.513 597.788 306.544 598.566 307.248 599.344 307.953 600.313 308.305 601.473 308.305 602.361 308.305 603.108 308.032 603.715 307.485 604.321 306.939 604.625 306.269 604.625 305.475 604.625 304.758 604.363 304.173 603.84 303.721 603.317 303.268 602.436 302.871 601.197 302.53L598.982 301.928C597.206 301.45 595.916 300.795 595.112 299.963 594.307 299.13 593.905 298.049 593.905 296.717 593.905 295.18 594.463 293.896 595.58 292.863 596.696 291.83 598.089 291.313 599.759 291.313ZM514.941 291.313C516.092 291.313 517.12 291.48 518.026 291.813 518.931 292.146 519.661 292.624 520.215 293.247L520.149 291.672 523.049 291.672 523.049 297.972 520.149 297.972C519.762 296.845 519.138 295.978 518.276 295.372 517.415 294.766 516.378 294.463 515.165 294.463 513.213 294.463 511.64 295.074 510.444 296.294 509.249 297.515 508.651 299.124 508.651 301.122 508.651 303.111 509.249 304.713 510.444 305.93 511.64 307.146 513.213 307.754 515.165 307.754 516.378 307.754 517.399 307.49 518.23 306.96 519.061 306.431 519.775 305.586 520.373 304.425L523.748 304.425C523.221 306.414 522.183 307.995 520.636 309.169 519.089 310.343 517.265 310.93 515.165 310.93 512.238 310.93 509.818 309.999 507.906 308.138 505.994 306.278 505.039 303.939 505.039 301.122 505.039 298.245 505.97 295.891 507.834 294.06 509.697 292.229 512.066 291.313 514.941 291.313ZM493.156 291.313C494.5 291.313 495.741 291.512 496.878 291.909 498.016 292.306 499.041 292.901 499.955 293.695 501.062 294.66 501.905 295.771 502.485 297.03 503.064 298.29 503.354 299.653 503.354 301.122 503.354 302.393 503.124 303.604 502.662 304.752 502.201 305.9 501.54 306.926 500.679 307.831 499.704 308.855 498.584 309.628 497.319 310.149 496.054 310.669 494.667 310.93 493.156 310.93 490.257 310.93 487.835 309.987 485.889 308.1 483.943 306.214 482.97 303.887 482.97 301.122 482.97 298.339 483.939 296.008 485.876 294.13 487.813 292.252 490.239 291.313 493.156 291.313ZM472.745 291.313C473.642 291.313 474.473 291.45 475.237 291.723 476.002 291.996 476.657 292.393 477.202 292.914L477.202 291.672 479.905 291.672 479.905 297.293 477.202 297.293C476.894 296.175 476.415 295.34 475.765 294.79 475.114 294.239 474.288 293.964 473.286 293.964 472.442 293.964 471.754 294.188 471.223 294.636 470.691 295.084 470.425 295.654 470.425 296.345 470.425 296.935 470.594 297.402 470.932 297.748 471.271 298.093 471.866 298.386 472.719 298.625L475.079 299.278C477.25 299.892 478.778 300.641 479.661 301.525 480.544 302.408 480.986 303.593 480.986 305.078 480.986 306.845 480.435 308.262 479.331 309.329 478.228 310.396 476.763 310.93 474.934 310.93 473.897 310.93 472.948 310.763 472.086 310.43 471.225 310.097 470.473 309.607 469.832 308.958L469.832 310.558 467.023 310.558 467.023 304.156 469.832 304.156C470.201 305.513 470.774 306.544 471.552 307.248 472.33 307.953 473.299 308.305 474.459 308.305 475.347 308.305 476.094 308.032 476.701 307.485 477.307 306.939 477.611 306.269 477.611 305.475 477.611 304.758 477.349 304.173 476.826 303.721 476.303 303.268 475.422 302.871 474.183 302.53L471.968 301.928C470.192 301.45 468.902 300.795 468.098 299.963 467.293 299.13 466.891 298.049 466.891 296.717 466.891 295.18 467.449 293.896 468.566 292.863 469.682 291.83 471.075 291.313 472.745 291.313ZM368.924 291.313C370.076 291.313 371.104 291.48 372.01 291.813 372.915 292.146 373.645 292.624 374.198 293.247L374.133 291.672 377.033 291.672 377.033 297.972 374.133 297.972C373.746 296.845 373.122 295.978 372.26 295.372 371.399 294.766 370.362 294.463 369.149 294.463 367.197 294.463 365.624 295.074 364.428 296.294 363.233 297.515 362.635 299.124 362.635 301.122 362.635 303.111 363.233 304.713 364.428 305.93 365.624 307.146 367.197 307.754 369.149 307.754 370.362 307.754 371.383 307.49 372.214 306.96 373.045 306.431 373.759 305.586 374.357 304.425L377.732 304.425C377.205 306.414 376.167 307.995 374.62 309.169 373.073 310.343 371.249 310.93 369.149 310.93 366.221 310.93 363.802 309.999 361.89 308.138 359.978 306.278 359.023 303.939 359.023 301.122 359.023 298.245 359.954 295.891 361.818 294.06 363.681 292.229 366.05 291.313 368.924 291.313ZM163.902 291.313C165.053 291.313 166.082 291.48 166.987 291.813 167.893 292.146 168.622 292.624 169.176 293.247L169.11 291.672 172.011 291.672 172.011 297.972 169.11 297.972C168.723 296.845 168.099 295.978 167.238 295.372 166.376 294.766 165.339 294.463 164.126 294.463 162.175 294.463 160.601 295.074 159.406 296.294 158.21 297.515 157.613 299.124 157.613 301.122 157.613 303.111 158.21 304.713 159.406 305.93 160.601 307.146 162.175 307.754 164.126 307.754 165.339 307.754 166.361 307.49 167.192 306.96 168.022 306.431 168.736 305.586 169.334 304.425L172.71 304.425C172.182 306.414 171.145 307.995 169.598 309.169 168.051 310.343 166.227 310.93 164.126 310.93 161.199 310.93 158.779 309.999 156.868 308.138 154.956 306.278 154 303.939 154 301.122 154 298.245 154.932 295.891 156.795 294.06 158.659 292.229 161.027 291.313 163.902 291.313Z" fill-rule="evenodd"/><path d="M39.6928 101.482 39.6928 128.318 40.3643 128.318 40.3643 115.638 78.9715 115.638 78.9715 114.967 40.3643 114.967 40.3643 101.482ZM36.3358 97.5234 43.7886 97.5234C44.0124 97.5234 44.1243 97.6353 44.1243 97.8589L44.1243 111.21 82.6643 111.21C82.8881 111.21 83 111.322 83 111.545L83 118.992C83 119.216 82.8881 119.328 82.6643 119.328L44.1243 119.328 44.1243 131.807C44.1243 132.03 44.0124 132.142 43.7886 132.142L36.3358 132.142C36.1119 132.142 36 132.03 36 131.807L36 97.8589C36 97.6353 36.1119 97.5234 36.3358 97.5234ZM40.0285 62.8215 40.0285 63.4924 59.1643 63.4924 59.1643 88.1147 40.0285 88.1147 40.0285 88.7856 78.9715 88.7856 78.9715 88.1147 59.8358 88.1147 59.8358 63.4924 78.9715 63.4924 78.9715 62.8215ZM36.3358 59.0644 82.6643 59.0644C82.8881 59.0644 83 59.1762 83 59.3999L83 66.847C83 67.0706 82.8881 67.1824 82.6643 67.1824L63.5958 67.1824 63.5958 84.4247 82.6643 84.4247C82.8881 84.4247 83 84.5365 83 84.7601L83 92.2073C83 92.4309 82.8881 92.5427 82.6643 92.5427L36.3358 92.5427C36.1119 92.5427 36 92.4309 36 92.2073L36 84.7601C36 84.5365 36.1119 84.4247 36.3358 84.4247L55.4714 84.4247 55.4714 67.1824 36.3358 67.1824C36.1119 67.1824 36 67.0706 36 66.847L36 59.3999C36 59.1762 36.1119 59.0644 36.3358 59.0644ZM78.6358 24.5838 78.6358 47.1263 59.8358 47.1263 59.8358 30.2194 59.1643 30.2194 59.1643 47.1263 40.3643 47.1263 40.3643 24.8521 39.6928 24.8521 39.6928 47.7972 79.3071 47.7972 79.3071 24.6509ZM75.2115 20.0216 82.6643 21.2293C82.8881 21.2293 83 21.3634 83 21.6318L83 51.1517C83 51.3754 82.8881 51.4872 82.6643 51.4872L36.3358 51.4872C36.1119 51.4872 36 51.3754 36 51.1517L36 21.4976C36 21.274 36.1119 21.1621 36.3358 21.1621L43.7886 21.1621C44.0124 21.1621 44.1243 21.274 44.1243 21.4976L44.1243 43.3692 55.4714 43.3692 55.4714 26.5966C55.4714 26.3728 55.5834 26.2611 55.8071 26.2611L63.2601 26.2611C63.4838 26.2611 63.5958 26.3728 63.5958 26.5966L63.5958 43.3692 74.8758 43.3692 74.8758 20.29C74.8758 20.111 74.9877 20.0216 75.2115 20.0216Z" fill-rule="evenodd"/><path d="M378.155 192.488 367.56 228.872 390.809 228.872 379.479 192.488ZM270.024 180.999 270.024 219.003 305.486 219.003 308.87 215.615 308.87 184.387 305.486 180.999ZM50.8048 180.999 50.8048 248.463 86.8558 248.463 90.2402 245.075 90.2402 184.387 86.8558 180.999ZM261.783 172.75 308.87 172.75 317.258 180.999 317.258 218.708 309.018 227.252 261.931 227.252ZM42.7117 172.75 90.5344 172.75 98.4804 180.704 98.4804 248.316 90.2402 256.712 42.7117 256.712ZM375.947 172.603 382.422 172.603 402.139 236.679 356.671 236.679ZM615.814 172.014 615.814 257.448 617.285 257.448 617.285 215.467 671.288 215.467 671.288 257.448 672.76 257.448 672.76 172.014 671.288 172.014 671.288 213.994 617.285 213.994 617.285 172.014ZM133.038 172.014 133.185 257.448 134.656 257.448 134.509 172.014ZM531.962 171.277 523.722 179.526 523.722 250.083 531.962 258.185 574.34 258.185 582.286 249.936 582.286 236.826 580.815 236.826 580.815 249.347 573.752 256.712 532.551 256.712 525.193 249.494 525.193 180.115 532.551 172.75 573.31 172.75 580.668 180.115 580.668 187.628 582.139 187.628 582.139 179.526 573.899 171.277ZM436.196 171.277 436.196 172.75 464.006 172.75 464.006 257.448 465.478 257.448 465.478 172.75 495.054 172.75 495.054 171.277ZM260.312 171.277 260.459 257.448 261.931 257.448 261.931 228.725 309.606 228.725 318.729 219.297 318.729 180.41 309.459 171.277ZM176.902 171.277 168.22 179.968 168.22 204.567 176.902 213.258 217.661 213.258 225.46 221.212 225.46 249.052 217.661 256.712 178.079 256.712 169.691 248.316 169.691 239.33 168.22 239.33 168.22 248.905 177.49 258.185 218.25 258.185 226.932 249.641 226.932 220.623 218.25 211.785 177.49 211.785 169.691 203.978 169.691 180.557 177.49 172.75 217.808 172.75 225.46 180.557 225.46 186.302 226.932 186.302 226.932 179.968 218.397 171.277ZM41.2403 171.277 41.2403 258.185 90.8287 258.185 99.9518 248.905 99.9518 180.115 91.123 171.277ZM374.917 171.13 348.872 257.448 350.344 257.448 356.23 238.152 402.581 238.152 408.761 257.448 410.233 257.448 383.305 171.13ZM608.309 163.176 624.643 163.176C625.133 163.176 625.378 163.421 625.378 163.912L625.378 205.893 663.195 205.893 663.195 163.912C663.195 163.421 663.44 163.176 663.931 163.176L680.264 163.176C680.755 163.176 681 163.421 681 163.912L681 265.55C681 266.041 680.755 266.286 680.264 266.286L663.931 266.286C663.44 266.286 663.195 266.041 663.195 265.55L663.195 223.716 625.378 223.716 625.378 265.55C625.378 266.041 625.133 266.286 624.643 266.286L608.309 266.286C607.819 266.286 607.574 266.041 607.574 265.55L607.574 163.912C607.574 163.421 607.819 163.176 608.309 163.176ZM529.166 163.176 576.695 163.176C577.087 163.176 577.431 163.323 577.725 163.617L590.085 175.843C590.38 176.138 590.527 176.482 590.527 176.875L590.527 194.403C590.527 194.894 590.281 195.14 589.791 195.14L573.458 195.14C572.967 195.14 572.722 194.894 572.722 194.403L572.722 184.387 569.338 180.999 536.671 180.999 533.286 184.387 533.286 245.075 536.671 248.463 569.338 248.463 572.722 245.075 572.722 230.05C572.722 229.559 572.967 229.314 573.458 229.314L589.791 229.314C590.281 229.314 590.527 229.559 590.527 230.05L590.527 252.735C590.527 253.128 590.38 253.471 590.085 253.766L577.872 265.845C577.578 266.139 577.234 266.286 576.842 266.286L529.019 266.286C528.627 266.286 528.284 266.139 527.989 265.845L515.923 253.766C515.629 253.471 515.482 253.128 515.482 252.735L515.482 176.875C515.482 176.482 515.629 176.138 515.923 175.843L528.136 163.617C528.431 163.323 528.774 163.176 529.166 163.176ZM428.544 163.176 503 163.176C503.491 163.176 503.736 163.421 503.736 163.912L503.736 180.262C503.736 180.753 503.491 180.999 503 180.999L473.718 180.999 473.718 265.55C473.718 266.041 473.473 266.286 472.982 266.286L456.649 266.286C456.158 266.286 455.913 266.041 455.913 265.55L455.913 180.999 428.544 180.999C428.053 180.999 427.808 180.753 427.808 180.262L427.808 163.912C427.808 163.421 428.053 163.176 428.544 163.176ZM370.65 163.176 388.749 163.176C389.142 163.176 389.436 163.372 389.632 163.765L421.857 265.403C421.955 265.992 421.759 266.286 421.269 266.286L402.875 266.286C402.483 266.286 402.189 266.09 401.992 265.697L396.107 246.106 362.41 246.106 356.671 265.697C356.475 266.09 356.181 266.286 355.788 266.286L338.719 266.286C338.131 266.286 337.935 265.992 338.131 265.403L369.767 163.765C369.963 163.372 370.258 163.176 370.65 163.176ZM252.955 163.176 312.843 163.176C313.236 163.176 313.579 163.323 313.873 163.617L326.234 175.843C326.528 176.138 326.675 176.482 326.675 176.875L326.675 223.274C326.675 223.667 326.528 224.011 326.234 224.306L313.873 236.384C313.579 236.679 313.236 236.826 312.843 236.826L270.024 236.826 270.024 265.55C270.024 266.041 269.778 266.286 269.288 266.286L252.955 266.286C252.464 266.286 252.219 266.041 252.219 265.55L252.219 163.912C252.219 163.421 252.464 163.176 252.955 163.176ZM173.812 163.176 221.34 163.176C221.732 163.176 222.076 163.323 222.37 163.617L234.73 175.843C235.025 176.138 235.172 176.482 235.172 176.875L235.172 192.636C235.172 193.127 234.927 193.372 234.436 193.372L218.103 193.372C217.612 193.372 217.367 193.127 217.367 192.636L217.367 184.387 213.983 180.999 181.316 180.999 177.932 184.387 177.932 200.295 181.316 203.683 221.34 203.683C221.732 203.683 222.076 203.831 222.37 204.125L234.73 216.204C235.025 216.499 235.172 216.842 235.172 217.235L235.172 252.735C235.172 253.128 235.025 253.471 234.73 253.766L222.517 265.845C222.223 266.139 221.88 266.286 221.487 266.286L173.664 266.286C173.272 266.286 172.929 266.139 172.634 265.845L160.568 253.766C160.274 253.471 160.127 253.128 160.127 252.735L160.127 232.996C160.127 232.505 160.372 232.26 160.863 232.26L177.196 232.26C177.686 232.26 177.932 232.505 177.932 232.996L177.932 245.075 181.316 248.463 213.983 248.463 217.367 245.075 217.367 224.895 213.983 221.507 173.812 221.507C173.419 221.507 173.076 221.36 172.782 221.065L160.568 208.839C160.274 208.544 160.127 208.201 160.127 207.808L160.127 176.875C160.127 176.482 160.274 176.138 160.568 175.843L172.782 163.617C173.076 163.323 173.419 163.176 173.812 163.176ZM125.828 163.176 142.161 163.176C142.651 163.176 142.897 163.421 142.897 163.912L142.897 265.55C142.897 266.041 142.651 266.286 142.161 266.286L125.828 266.286C125.337 266.286 125.092 266.041 125.092 265.55L125.092 163.912C125.092 163.421 125.337 163.176 125.828 163.176ZM33.7358 163.176 94.2132 163.176C94.6055 163.176 94.9488 163.323 95.2432 163.617L107.456 175.843C107.751 176.138 107.898 176.482 107.898 176.875L107.898 252.735C107.898 253.128 107.751 253.471 107.456 253.766L95.3903 265.845C95.096 266.139 94.7527 266.286 94.3603 266.286L33.7358 266.286C33.2452 266.286 33 266.041 33 265.55L33 163.912C33 163.421 33.2452 163.176 33.7358 163.176Z" fill-rule="evenodd"/><path d="M227.966 42.1895 227.966 79.5763 266.216 79.5763 269.807 75.9634 269.807 45.8026 266.216 42.1895ZM219.224 33.3927 269.651 33.3927 278.55 42.1895 278.55 79.2621 269.807 88.3733 219.38 88.3733ZM439.678 32.6072 439.834 123.718 441.395 123.718 441.239 32.6072ZM315.582 32.6072 315.738 123.718 317.3 123.718 317.143 32.6072ZM618.176 31.8218 608.965 41.0899 608.965 67.3235 618.176 76.5917 661.422 76.5917 669.696 85.0745 669.696 114.764 661.422 122.933 619.425 122.933 610.526 113.979 610.526 104.396 608.965 104.396 608.965 114.607 618.801 124.503 662.046 124.503 671.257 115.392 671.257 84.4461 662.046 75.0208 618.801 75.0208 610.526 66.6951 610.526 41.7182 618.801 33.3927 661.578 33.3927 669.696 41.7182 669.696 47.8446 671.257 47.8446 671.257 41.0899 662.202 31.8218ZM485.762 31.8218 477.019 40.6186 477.019 115.864 485.762 124.503 530.725 124.503 539.155 115.706 539.155 101.726 537.594 101.726 537.594 115.078 530.1 122.933 486.386 122.933 478.58 115.235 478.58 41.247 486.386 33.3927 529.632 33.3927 537.438 41.247 537.438 49.2585 538.999 49.2585 538.999 40.6186 530.256 31.8218ZM347.147 31.8218 347.147 33.3927 376.653 33.3927 376.653 123.718 378.215 123.718 378.215 33.3927 409.595 33.3927 409.595 31.8218ZM217.663 31.8218 217.819 123.718 219.38 123.718 219.38 89.9442 252.633 89.9442 271.836 123.561 273.866 123.561 254.663 89.9442 270.431 89.9442 280.111 79.8905 280.111 41.5611 270.275 31.8218ZM128.486 31.8218 119.743 40.6186 119.743 115.864 128.486 124.503 173.448 124.503 181.879 115.706 181.879 101.726 180.318 101.726 180.318 115.078 172.824 122.933 129.11 122.933 121.304 115.235 121.304 41.247 129.11 33.3927 172.355 33.3927 180.161 41.247 180.161 49.2585 181.723 49.2585 181.723 40.6186 172.98 31.8218ZM573.69 31.1934 572.753 33.3927 572.285 39.8333 571.972 43.6033 573.378 41.8753 574.314 35.906ZM614.898 23.1819 665.325 23.1819C665.741 23.1819 666.105 23.339 666.418 23.6532L679.532 36.6914C679.844 37.0056 680 37.3721 680 37.7911L680 54.5994C680 55.1231 679.74 55.3849 679.219 55.3849L661.89 55.3849C661.37 55.3849 661.109 55.1231 661.109 54.5994L661.109 45.8026 657.519 42.1895 622.86 42.1895 619.269 45.8026 619.269 62.768 622.86 66.381 665.325 66.381C665.741 66.381 666.105 66.5381 666.418 66.8522L679.532 79.7334C679.844 80.0476 680 80.4142 680 80.833L680 118.691C680 119.11 679.844 119.477 679.532 119.791L666.574 132.672C666.261 132.986 665.897 133.143 665.481 133.143L614.742 133.143C614.325 133.143 613.961 132.986 613.649 132.672L600.847 119.791C600.534 119.477 600.378 119.11 600.378 118.691L600.378 97.6415C600.378 97.1178 600.639 96.856 601.159 96.856L618.488 96.856C619.009 96.856 619.269 97.1178 619.269 97.6415L619.269 110.523 622.86 114.136 657.519 114.136 661.109 110.523 661.109 89.0016 657.519 85.3885 614.898 85.3885C614.481 85.3885 614.117 85.2316 613.805 84.9174L600.847 71.8791C600.534 71.5649 600.378 71.1983 600.378 70.7795L600.378 37.7911C600.378 37.3721 600.534 37.0056 600.847 36.6914L613.805 23.6532C614.117 23.339 614.481 23.1819 614.898 23.1819ZM482.796 23.1819 533.222 23.1819C533.639 23.1819 534.003 23.339 534.315 23.6532L547.43 36.6914C547.742 37.0056 547.898 37.3721 547.898 37.7911L547.898 56.4845C547.898 57.0081 547.638 57.2699 547.117 57.2699L529.788 57.2699C529.267 57.2699 529.007 57.0081 529.007 56.4845L529.007 45.8026 525.417 42.1895 490.758 42.1895 487.167 45.8026 487.167 110.523 490.758 114.136 525.417 114.136 529.007 110.523 529.007 94.4997C529.007 93.9761 529.267 93.7142 529.788 93.7142L547.117 93.7142C547.638 93.7142 547.898 93.9761 547.898 94.4997L547.898 118.691C547.898 119.11 547.742 119.477 547.43 119.791L534.471 132.672C534.159 132.986 533.795 133.143 533.379 133.143L482.639 133.143C482.223 133.143 481.859 132.986 481.547 132.672L468.745 119.791C468.432 119.477 468.276 119.11 468.276 118.691L468.276 37.7911C468.276 37.3721 468.432 37.0056 468.745 36.6914L481.703 23.6532C482.015 23.339 482.379 23.1819 482.796 23.1819ZM432.028 23.1819 449.358 23.1819C449.878 23.1819 450.138 23.4438 450.138 23.9674L450.138 132.358C450.138 132.881 449.878 133.143 449.358 133.143L432.028 133.143C431.508 133.143 431.248 132.881 431.248 132.358L431.248 23.9674C431.248 23.4438 431.508 23.1819 432.028 23.1819ZM339.028 23.1819 418.025 23.1819C418.546 23.1819 418.806 23.4438 418.806 23.9674L418.806 41.404C418.806 41.9278 418.546 42.1895 418.025 42.1895L386.957 42.1895 386.957 132.358C386.957 132.881 386.697 133.143 386.177 133.143L368.847 133.143C368.327 133.143 368.067 132.881 368.067 132.358L368.067 42.1895 339.028 42.1895C338.508 42.1895 338.248 41.9278 338.248 41.404L338.248 23.9674C338.248 23.4438 338.508 23.1819 339.028 23.1819ZM307.932 23.1819 325.262 23.1819C325.782 23.1819 326.042 23.4438 326.042 23.9674L326.042 132.358C326.042 132.881 325.782 133.143 325.262 133.143L307.932 133.143C307.412 133.143 307.152 132.881 307.152 132.358L307.152 23.9674C307.152 23.4438 307.412 23.1819 307.932 23.1819ZM209.856 23.1819 274.022 23.1819C274.438 23.1819 274.803 23.339 275.115 23.6532L288.229 36.6914C288.541 37.0056 288.697 37.3721 288.697 37.7911L288.697 84.1319C288.697 84.5508 288.541 84.9174 288.229 85.2316L275.739 97.6415C275.427 97.9556 275.115 98.1127 274.803 98.1127L269.182 98.1127 288.385 132.201C288.593 132.829 288.385 133.143 287.761 133.143L269.182 133.143C268.662 133.143 268.35 132.986 268.246 132.672L248.731 98.5839 227.966 98.5839 227.966 132.358C227.966 132.881 227.706 133.143 227.186 133.143L209.856 133.143C209.336 133.143 209.076 132.881 209.076 132.358L209.076 23.9674C209.076 23.4438 209.336 23.1819 209.856 23.1819ZM125.519 23.1819 175.946 23.1819C176.363 23.1819 176.727 23.339 177.039 23.6532L190.153 36.6914C190.465 37.0056 190.622 37.3721 190.622 37.7911L190.622 56.4845C190.622 57.0081 190.361 57.2699 189.841 57.2699L172.512 57.2699C171.991 57.2699 171.731 57.0081 171.731 56.4845L171.731 45.8026 168.14 42.1895 133.481 42.1895 129.891 45.8026 129.891 110.523 133.481 114.136 168.14 114.136 171.731 110.523 171.731 94.4997C171.731 93.9761 171.991 93.7142 172.512 93.7142L189.841 93.7142C190.361 93.7142 190.622 93.9761 190.622 94.4997L190.622 118.691C190.622 119.11 190.465 119.477 190.153 119.791L177.195 132.672C176.883 132.986 176.519 133.143 176.102 133.143L125.363 133.143C124.947 133.143 124.583 132.986 124.27 132.672L111.468 119.791C111.156 119.477 111 119.11 111 118.691L111 37.7911C111 37.3721 111.156 37.0056 111.468 36.6914L124.426 23.6532C124.739 23.339 125.103 23.1819 125.519 23.1819ZM565.572 23.0248 581.964 23.0248C582.485 23.0248 582.745 23.2867 582.745 23.8103L582.745 36.8485C582.745 37.2675 582.693 37.5817 582.589 37.7911L574.783 53.3428C574.574 53.7616 574.262 53.9711 573.846 53.9711L565.572 53.9711C565.051 53.9711 564.791 53.7093 564.791 53.1856L564.791 23.8103C564.791 23.2867 565.051 23.0248 565.572 23.0248Z" fill-rule="evenodd"/></g></svg>